<svg xmlns="http://www.w3.org/2000/svg" width="38" height="6" viewBox="0 0 38 6" fill="none">
    <g clip-path="url(#clip0_26_138)">
        <mask id="mask0_26_138" style="mask-type:luminance" maskUnits="userSpaceOnUse" x="0" y="0"
            width="38" height="6">
            <path d="M0 0H38V6H0V0Z" fill="white" />
        </mask>
        <g mask="url(#mask0_26_138)">
            <path
                d="M0 6.0735V0H2.87175C3.53725 0 4.12375 0.12475 4.63325 0.37325C5.14225 0.622 5.54 0.97225 5.826 1.42325C6.11275 1.874 6.2555 2.40925 6.2555 3.02825C6.2555 3.64725 6.11275 4.19225 5.826 4.64625C5.5395 5.10025 5.14175 5.4515 4.6335 5.70025C4.12425 5.949 3.53725 6.0735 2.87175 6.0735H0ZM1.71825 4.7025H2.78575C3.13825 4.7025 3.44375 4.63575 3.70075 4.5025C3.95384 4.37328 4.16355 4.17278 4.304 3.92575C4.449 3.674 4.521 3.37775 4.521 3.03625C4.521 2.6945 4.44875 2.38425 4.304 2.138C4.16166 1.89467 3.95234 1.69742 3.701 1.56975C3.4435 1.4365 3.13825 1.36975 2.7855 1.36975H1.718L1.71825 4.7025ZM8.7285 6.0735V0H10.143L12.6505 4.13H11.9045L14.36 0H15.7745L15.783 6.0735H14.204L14.1875 2.40325H14.4563L12.6257 5.47475H11.862L9.9795 2.40325H10.3095V6.0735H8.72825H8.7285ZM18.5675 6.0735V0H20.2857V6.0735H18.5675ZM23.07 6.0735V0H24.4848L27.825 4.043H27.157V0H28.8405V6.0735H27.426L24.0772 2.0305H24.745V6.0735H23.07ZM31.6257 6.0735V0H34.4975C35.1623 0 35.7495 0.12475 36.259 0.37325C36.768 0.622 37.1658 0.97225 37.4518 1.42325C37.7383 1.874 37.8812 2.40925 37.8812 3.02825C37.8812 3.64725 37.7383 4.19225 37.4518 4.64625C37.1653 5.10025 36.7675 5.4515 36.259 5.70025C35.75 5.949 35.1628 6.0735 34.4975 6.0735H31.6257ZM33.3438 4.7025H34.4113C34.7638 4.7025 35.0692 4.63575 35.3265 4.5025C35.5795 4.3732 35.7892 4.17272 35.9297 3.92575C36.0745 3.674 36.1465 3.37775 36.1465 3.03625C36.1465 2.6945 36.074 2.38425 35.9297 2.138C35.7873 1.8947 35.5779 1.69746 35.3265 1.56975C35.0692 1.4365 34.7638 1.36975 34.4113 1.36975H33.3438V4.7025Z"
                fill="#FFD1DC" />
            <path
                d="M0 6.0735V0H2.87175C3.53725 0 4.12375 0.12475 4.63325 0.37325C5.14225 0.622 5.54 0.97225 5.826 1.42325C6.11275 1.874 6.2555 2.40925 6.2555 3.02825C6.2555 3.64725 6.11275 4.19225 5.826 4.64625C5.5395 5.10025 5.14175 5.4515 4.6335 5.70025C4.12425 5.949 3.53725 6.0735 2.87175 6.0735H0ZM1.71825 4.7025H2.78575C3.13825 4.7025 3.44375 4.63575 3.70075 4.5025C3.95384 4.37328 4.16355 4.17278 4.304 3.92575C4.449 3.674 4.521 3.37775 4.521 3.03625C4.521 2.6945 4.44875 2.38425 4.304 2.138C4.16166 1.89467 3.95234 1.69742 3.701 1.56975C3.4435 1.4365 3.13825 1.36975 2.7855 1.36975H1.718L1.71825 4.7025ZM8.7285 6.0735V0H10.143L12.6505 4.13H11.9045L14.36 0H15.7745L15.783 6.0735H14.204L14.1875 2.40325H14.4563L12.6257 5.47475H11.862L9.9795 2.40325H10.3095V6.0735H8.72825H8.7285ZM18.5675 6.0735V0H20.2857V6.0735H18.5675ZM23.07 6.0735V0H24.4848L27.825 4.043H27.157V0H28.8405V6.0735H27.426L24.0772 2.0305H24.745V6.0735H23.07ZM31.6257 6.0735V0H34.4975C35.1623 0 35.7495 0.12475 36.259 0.37325C36.768 0.622 37.1658 0.97225 37.4518 1.42325C37.7383 1.874 37.8812 2.40925 37.8812 3.02825C37.8812 3.64725 37.7383 4.19225 37.4518 4.64625C37.1653 5.10025 36.7675 5.4515 36.259 5.70025C35.75 5.949 35.1628 6.0735 34.4975 6.0735H31.6257ZM33.3438 4.7025H34.4113C34.7638 4.7025 35.0692 4.63575 35.3265 4.5025C35.5795 4.3732 35.7892 4.17272 35.9297 3.92575C36.0745 3.674 36.1465 3.37775 36.1465 3.03625C36.1465 2.6945 36.074 2.38425 35.9297 2.138C35.7873 1.8947 35.5779 1.69746 35.3265 1.56975C35.0692 1.4365 34.7638 1.36975 34.4113 1.36975H33.3438V4.7025Z"
                fill="#FD6D94" />
        </g>
    </g>
    <defs>
        <clipPath id="clip0_26_138">
            <rect width="38" height="6" fill="white" />
        </clipPath>
    </defs>
</svg>